<?xml version="1.0" standalone="no"?>
<!DOCTYPE svg PUBLIC "-//W3C//DTD SVG 20010904//EN"
 "http://www.w3.org/TR/2001/REC-SVG-20010904/DTD/svg10.dtd">
<svg version="1.0" xmlns="http://www.w3.org/2000/svg"
 width="562.000000pt" height="565.000000pt" viewBox="0 0 562.000000 565.000000"
 preserveAspectRatio="xMidYMid meet">

<g transform="translate(0.000000,565.000000) scale(0.100000,-0.100000)"
fill="#000000" stroke="none">
<path d="M2675 5573 c-224 -13 -486 -59 -665 -115 l-105 -34 -3 -86 -3 -87 88
30 c122 41 257 75 409 101 112 19 165 22 409 23 306 0 396 -9 623 -65 907
-223 1630 -916 1887 -1809 133 -462 136 -955 10 -1416 -176 -640 -599 -1199
-1168 -1542 -293 -176 -625 -296 -972 -349 -169 -26 -578 -26 -750 0 -132 20
-389 82 -475 115 -30 12 -56 21 -58 21 -1 0 -1 -39 0 -87 l3 -87 90 -28 c113
-35 277 -72 420 -95 158 -26 632 -26 790 0 267 43 527 119 744 217 810 366
1395 1096 1574 1965 44 213 52 296 51 570 0 294 -16 430 -78 675 -94 370 -282
747 -523 1050 -94 117 -309 333 -423 424 -222 177 -532 352 -790 446 -332 121
-749 184 -1085 163z"/>
<path d="M2676 4979 c-21 -16 -26 -29 -26 -64 0 -35 5 -48 26 -64 36 -28 70
-26 102 6 25 25 25 27 7 33 -14 5 -26 1 -38 -11 -22 -23 -22 -23 -41 -3 -23
22 -20 71 4 84 14 7 22 7 32 -3 13 -14 48 -11 48 4 0 13 -43 39 -66 39 -12 0
-33 -9 -48 -21z"/>
<path d="M2845 4975 c-69 -68 15 -184 93 -129 12 8 22 19 22 25 0 12 -33 12
-46 -1 -13 -13 -40 -4 -48 16 -4 11 6 14 49 14 52 0 55 1 55 25 0 33 -42 75
-75 75 -14 0 -37 -11 -50 -25z m75 -20 c17 -21 9 -27 -31 -23 -31 3 -32 4 -15
21 21 21 30 21 46 2z"/>
<path d="M2515 4970 c-3 -6 -18 -7 -32 -4 l-26 7 8 -68 c9 -85 13 -95 35 -95
16 0 17 7 12 65 -4 54 -2 66 12 71 26 10 43 -12 49 -67 7 -60 9 -62 31 -53 13
5 15 16 10 63 -9 77 -18 91 -59 91 -18 0 -37 -5 -40 -10z"/>
<path d="M3105 4955 c-36 -35 -35 -96 1 -124 33 -26 76 -27 98 -2 15 17 15 19
1 25 -9 3 -24 0 -35 -6 -14 -9 -22 -9 -34 1 -22 18 -21 44 2 38 9 -3 34 -8 55
-12 36 -6 37 -5 37 25 0 38 -39 80 -75 80 -14 0 -37 -11 -50 -25z m79 -28 c14
-21 7 -26 -26 -20 -29 5 -38 27 -15 36 18 8 29 3 41 -16z"/>
<path d="M2180 4955 c0 -23 53 -205 59 -205 3 0 12 4 20 9 22 14 -35 211 -61
211 -10 0 -18 -7 -18 -15z"/>
<path d="M2100 4940 c-12 -8 -10 -23 18 -110 27 -81 37 -100 53 -100 10 0 19
5 19 12 0 18 -64 208 -70 208 -3 0 -12 -5 -20 -10z"/>
<path d="M2323 4940 c-31 -13 -46 -46 -38 -87 8 -44 37 -73 73 -73 32 0 72 25
72 46 0 20 -30 18 -46 -3 -10 -14 -17 -16 -30 -7 -32 19 -25 32 23 40 57 11
66 32 29 69 -26 26 -46 30 -83 15z m57 -45 c0 -14 -48 -27 -55 -14 -3 4 2 14
10 23 17 17 45 11 45 -9z"/>
<path d="M3266 4879 c-9 -39 -13 -75 -10 -80 14 -23 33 -5 44 41 13 54 31 76
56 66 13 -5 15 -15 10 -49 -3 -23 -8 -52 -12 -63 -4 -16 0 -23 15 -27 17 -4
22 3 35 61 16 71 10 96 -24 107 -11 3 -29 3 -40 0 -11 -4 -20 -2 -20 4 0 6 -9
11 -19 11 -15 0 -22 -14 -35 -71z"/>
<path d="M3580 4900 c-33 -33 -25 -63 28 -108 43 -37 46 -42 31 -57 -21 -22
-66 -5 -75 29 -8 33 -44 43 -44 11 0 -37 10 -55 42 -71 64 -33 128 -10 128 47
0 20 -12 38 -46 67 -46 39 -51 62 -14 62 11 0 29 -13 42 -30 24 -32 48 -40 48
-14 0 29 -21 56 -55 70 -46 19 -61 18 -85 -6z"/>
<path d="M2000 4843 c-50 -18 -64 -68 -35 -123 16 -32 51 -46 84 -35 46 14 70
65 31 65 -11 0 -20 -6 -20 -14 0 -21 -32 -29 -49 -12 -13 13 -11 16 12 26 15
5 38 14 52 20 22 8 24 13 15 29 -20 38 -57 56 -90 44z m45 -43 c7 -11 -42 -37
-51 -27 -4 3 -4 13 -1 22 7 17 42 21 52 5z"/>
<path d="M2561 4784 c-123 -17 -204 -35 -323 -71 -77 -23 -88 -29 -88 -49 l0
-23 72 25 c259 88 638 116 928 69 811 -132 1456 -726 1654 -1524 45 -181 51
-235 51 -486 -1 -255 -8 -319 -61 -522 -206 -796 -908 -1398 -1739 -1493 -253
-28 -572 1 -811 75 -96 30 -94 30 -94 5 0 -16 16 -24 83 -45 101 -31 245 -61
357 -75 108 -13 386 -13 487 0 468 62 867 252 1192 565 156 150 297 334 385
502 l38 73 41 -35 c49 -42 96 -58 156 -53 54 4 70 28 19 28 -52 0 -122 27
-161 63 l-36 32 49 120 c81 199 127 409 145 672 l7 91 49 12 c51 13 112 7 167
-16 27 -11 32 -11 32 1 0 41 -118 72 -197 52 l-52 -14 -6 66 c-3 36 -10 107
-16 156 -52 458 -282 918 -622 1241 -332 316 -755 513 -1209 563 -131 15 -370
12 -497 -5z"/>
<path d="M1815 4755 c-15 -15 -25 -36 -25 -54 0 -41 44 -91 79 -91 34 0 81 41
81 70 0 28 -29 25 -40 -5 -11 -30 -40 -33 -64 -6 -27 29 -17 66 16 66 36 1 59
22 38 35 -26 17 -60 11 -85 -15z"/>
<path d="M3745 4771 c-7 -13 15 -26 45 -26 16 0 26 -6 28 -18 3 -17 -1 -18
-42 -12 -52 8 -76 -4 -76 -39 0 -28 18 -46 47 -46 13 0 33 -10 45 -22 l22 -22
6 25 c4 13 17 43 29 67 23 46 18 72 -19 92 -23 13 -77 13 -85 1z m53 -98 c-2
-12 -12 -18 -28 -18 -16 0 -26 6 -28 18 -3 13 3 17 28 17 25 0 31 -4 28 -17z"/>
<path d="M1713 4703 c-7 -2 -13 -15 -13 -27 0 -31 -8 -36 -36 -24 -20 9 -28 8
-40 -4 -13 -13 -10 -17 27 -33 l41 -19 -5 -48 c-8 -64 22 -62 38 3 6 25 9 26
36 16 23 -9 32 -8 45 4 14 14 11 18 -32 34 l-46 18 6 43 c6 43 3 47 -21 37z"/>
<path d="M3886 4650 c-41 -69 -42 -75 -21 -84 11 -4 24 8 43 39 28 47 43 58
67 49 21 -9 19 -29 -11 -79 -25 -43 -25 -65 -1 -65 7 0 27 27 45 60 26 47 31
63 23 79 -11 20 -32 31 -62 31 -10 0 -18 5 -16 12 1 6 -5 13 -14 15 -11 3 -28
-16 -53 -57z"/>
<path d="M1470 4619 c-30 -22 -54 -46 -54 -53 3 -27 117 -176 128 -167 6 4 37
27 69 50 48 35 56 45 46 57 -10 12 -19 8 -61 -23 l-50 -36 -19 24 c-18 24 -18
24 3 39 50 34 68 55 59 69 -7 11 -18 7 -56 -20 -42 -30 -48 -32 -56 -16 -14
24 -11 29 35 62 24 17 41 36 38 43 -6 20 -24 14 -82 -29z"/>
<path d="M4104 4626 c-3 -8 -12 -12 -20 -9 -8 3 -14 1 -15 -3 -4 -42 -8 -55
-27 -79 -28 -35 -28 -71 -1 -86 17 -9 23 -8 30 2 5 8 3 16 -3 20 -17 11 37 90
56 83 19 -7 32 16 15 26 -10 7 -10 11 1 25 12 14 12 18 -1 26 -20 12 -29 11
-35 -5z"/>
<path d="M4246 4549 c-24 -14 -5 -28 30 -21 19 3 22 7 13 18 -14 17 -18 17
-43 3z"/>
<path d="M1348 4526 c-16 -12 -15 -15 12 -41 22 -21 33 -26 41 -18 8 8 8 17 0
30 -18 34 -34 43 -53 29z"/>
<path d="M4136 4503 c-47 -47 -44 -94 9 -129 32 -21 84 -11 65 11 -7 8 -23 15
-37 15 -25 0 -39 20 -29 46 5 12 13 9 46 -17 33 -27 42 -30 55 -19 23 19 19
73 -8 98 -31 30 -69 28 -101 -5z m89 -23 c4 -6 4 -18 1 -26 -5 -13 -9 -13 -31
2 -14 9 -25 20 -25 25 0 13 47 11 55 -1z"/>
<path d="M1280 4470 c-12 -8 -10 -14 15 -40 22 -23 25 -30 12 -30 -25 0 -57
-36 -57 -64 0 -32 43 -82 76 -90 33 -9 74 17 74 45 0 11 4 17 10 14 6 -4 17
-1 25 5 12 10 2 25 -58 91 -39 43 -74 79 -77 79 -3 0 -12 -5 -20 -10z m83
-118 c21 -18 22 -45 2 -62 -12 -10 -20 -9 -39 4 -34 22 -43 56 -21 72 19 14
28 11 58 -14z"/>
<path d="M2745 4386 c-104 -47 -126 -181 -44 -272 17 -19 20 -50 29 -390 5
-203 10 -463 10 -579 0 -115 3 -240 6 -276 l7 -67 59 -12 c32 -7 60 -11 63 -9
2 3 9 299 16 659 l12 655 28 32 c74 86 48 217 -51 257 -49 19 -94 20 -135 2z"/>
<path d="M4329 4321 c-40 -41 -40 -86 1 -109 16 -9 30 -22 30 -29 0 -34 29
-19 101 53 70 69 77 80 64 93 -13 13 -18 12 -45 -14 -22 -21 -30 -25 -30 -13
0 52 -76 64 -121 19z m99 -43 c-2 -12 -15 -30 -30 -41 -22 -17 -30 -18 -43 -7
-22 19 -18 46 11 69 32 25 67 13 62 -21z"/>
<path d="M1129 4228 c-7 -13 -19 -29 -28 -36 -14 -11 -9 -19 44 -67 53 -48 61
-53 75 -40 13 14 10 20 -28 54 -41 38 -53 66 -31 73 12 4 1 38 -12 38 -4 0
-14 -10 -20 -22z"/>
<path d="M4456 4185 c-36 -33 -36 -86 0 -114 32 -25 69 -28 60 -5 -3 9 -6 18
-6 20 0 2 -9 4 -19 4 -22 0 -35 25 -22 47 7 12 14 8 41 -26 l34 -41 23 22 c28
27 30 67 3 96 -29 30 -79 29 -114 -3z m88 -20 c15 -15 12 -45 -4 -45 -11 0
-40 47 -33 54 10 10 20 7 37 -9z"/>
<path d="M1034 4119 c-4 -7 13 -29 41 -54 35 -29 47 -46 42 -58 -9 -25 -33
-21 -83 14 -43 29 -64 31 -64 5 0 -7 25 -30 55 -51 49 -33 59 -37 81 -27 15 8
27 23 30 42 4 16 10 27 15 25 4 -3 12 2 17 12 8 14 0 25 -49 60 -62 46 -74 50
-85 32z"/>
<path d="M2025 4076 c-22 -7 -123 -56 -225 -108 -208 -107 -277 -128 -418
-128 -74 0 -92 -3 -106 -19 -36 -40 18 -81 109 -81 48 0 55 -2 55 -20 0 -11
10 -30 21 -41 20 -20 29 -21 120 -17 l98 5 6 -28 c12 -55 35 -64 166 -63 119
1 119 1 126 -23 12 -52 120 -67 258 -38 91 19 92 19 99 -10 4 -14 20 -32 38
-41 43 -22 201 -15 273 13 l50 19 3 92 3 93 -36 -7 c-95 -18 -157 27 -205 148
-53 134 -100 193 -190 240 -55 28 -182 35 -245 14z"/>
<path d="M3399 4081 c-105 -32 -178 -113 -233 -259 -46 -121 -93 -158 -194
-150 l-47 3 0 -90 0 -89 74 -23 c81 -26 196 -32 243 -14 15 5 35 23 44 38 10
15 19 30 20 32 2 1 46 -5 99 -14 154 -28 238 -11 247 49 2 11 9 20 16 18 43
-9 165 -14 196 -8 43 8 76 40 76 74 0 23 2 24 53 17 119 -17 180 -1 193 50 6
23 11 25 64 25 63 0 110 26 110 60 0 30 -26 37 -150 43 -150 6 -212 28 -440
152 -63 35 -139 70 -169 79 -57 17 -158 20 -202 7z"/>
<path d="M4721 4051 c-11 -7 -10 -13 4 -35 10 -15 16 -28 14 -30 -2 -2 -37
-25 -76 -50 -64 -41 -71 -49 -61 -65 11 -17 16 -15 87 30 l76 48 22 -27 c17
-21 24 -24 34 -15 9 9 2 27 -32 82 -24 39 -46 70 -49 70 -3 1 -11 -3 -19 -8z"/>
<path d="M912 3940 c-34 -32 -30 -82 9 -114 38 -32 79 -33 107 -3 22 24 30 81
13 92 -13 7 -26 -15 -26 -45 0 -18 -6 -26 -22 -28 -29 -4 -29 9 1 57 l25 38
-25 12 c-36 16 -57 14 -82 -9z m58 -29 c0 -5 -9 -19 -19 -32 -18 -22 -20 -22
-26 -6 -10 25 1 47 25 47 11 0 20 -4 20 -9z"/>
<path d="M780 3831 c-7 -15 -6 -20 7 -25 15 -6 32 8 33 25 0 17 -31 16 -40 0z"/>
<path d="M4743 3830 c-65 -39 -73 -112 -19 -166 40 -40 69 -43 127 -13 73 37
85 115 27 176 -27 29 -90 31 -135 3z m109 -32 c9 -7 19 -23 23 -36 10 -33 -42
-82 -87 -82 -43 0 -58 15 -58 57 0 27 6 37 33 53 37 23 66 25 89 8z"/>
<path d="M836 3804 c-3 -9 -6 -17 -6 -20 0 -2 31 -19 69 -39 58 -29 70 -32 75
-19 3 9 6 17 6 19 0 3 -128 75 -134 75 -2 0 -7 -7 -10 -16z"/>
<path d="M807 3753 c-4 -3 -7 -17 -7 -30 0 -12 -4 -23 -9 -23 -5 0 -11 -7 -15
-15 -5 -15 24 -34 106 -68 34 -14 36 -14 41 4 4 15 -5 25 -45 45 -43 22 -49
29 -45 50 4 24 -14 50 -26 37z"/>
<path d="M4886 3617 c-96 -38 -114 -60 -97 -117 15 -51 35 -70 74 -70 45 0
167 48 167 66 0 25 -23 25 -90 -1 -81 -32 -98 -32 -111 1 -13 36 4 53 85 84
46 17 66 29 66 42 0 28 -11 27 -94 -5z"/>
<path d="M670 3601 c0 -20 23 -45 33 -35 7 8 -14 54 -25 54 -4 0 -8 -8 -8 -19z"/>
<path d="M740 3590 c-26 -26 -26 -81 -1 -104 11 -10 37 -20 59 -23 54 -7 85
22 80 75 -4 50 -33 52 -33 2 0 -29 -4 -36 -22 -38 -28 -4 -28 -5 -4 51 11 25
17 48 14 51 -14 14 -74 5 -93 -14z m48 -45 c-13 -29 -26 -32 -35 -9 -4 10 1
22 12 30 25 19 36 8 23 -21z"/>
<path d="M679 3429 c-13 -13 -19 -30 -17 -47 2 -15 -3 -32 -12 -39 -22 -17 -6
-27 90 -56 63 -20 86 -23 92 -14 12 18 4 31 -22 37 -20 5 -21 7 -6 19 9 8 16
28 16 47 0 28 -6 38 -32 54 -42 26 -83 25 -109 -1z m101 -45 c17 -16 4 -47
-22 -52 -26 -5 -68 17 -68 36 0 42 53 52 90 16z"/>
<path d="M4935 3393 c-49 -14 -91 -26 -93 -28 -2 -2 6 -35 18 -74 21 -71 38
-91 79 -91 11 0 28 11 38 24 15 18 26 23 46 19 55 -11 68 27 45 126 -13 59 -8
58 -133 24z m103 -55 c10 -38 6 -58 -13 -58 -17 0 -31 19 -39 52 -6 26 -1 31
36 37 4 0 11 -14 16 -31z m-84 -45 c1 -32 -3 -39 -20 -41 -17 -2 -24 5 -33 29
-15 44 -14 48 12 58 29 12 39 0 41 -46z"/>
<path d="M2480 3289 c-122 -18 -224 -79 -259 -153 -42 -91 -18 -193 61 -261
88 -74 209 -124 463 -190 174 -46 290 -99 325 -151 54 -80 13 -167 -106 -225
-35 -17 -64 -36 -64 -40 0 -11 54 -39 75 -39 28 0 95 40 135 81 74 76 87 176
35 265 -49 83 -122 121 -395 203 -312 95 -442 167 -456 253 -5 29 -1 41 25 70
44 51 82 64 137 50 66 -18 136 -14 199 10 50 19 56 24 53 47 -2 18 -17 34 -49
53 -54 34 -92 40 -179 27z"/>
<path d="M3027 3289 c-52 -12 -107 -56 -107 -84 0 -46 146 -79 245 -55 44 10
60 11 84 0 40 -16 91 -74 91 -103 0 -80 -156 -181 -372 -242 -33 -9 -58 -22
-58 -29 0 -8 23 -23 51 -35 49 -21 52 -22 107 -6 102 29 241 103 292 155 79
81 90 176 33 269 -23 37 -43 53 -101 82 -65 33 -93 41 -197 54 -16 2 -47 -1
-68 -6z"/>
<path d="M627 3253 c-17 -16 -4 -31 34 -37 55 -9 79 -23 79 -45 0 -25 -20 -31
-66 -20 -59 13 -74 11 -74 -10 0 -15 12 -21 60 -30 34 -7 70 -9 80 -6 23 7 35
44 25 74 -4 12 -2 21 4 21 6 0 11 8 11 18 0 15 -13 21 -64 30 -74 14 -80 14
-89 5z"/>
<path d="M4890 3166 c0 -18 14 -33 36 -40 37 -11 47 -88 14 -106 -19 -10 -27
-40 -14 -53 3 -3 50 22 105 54 137 83 134 97 -29 132 -75 16 -112 21 -112 13z
m160 -65 l25 -7 -33 -18 c-36 -19 -52 -14 -52 15 0 20 15 23 60 10z"/>
<path d="M540 3050 c-15 -15 -20 -33 -20 -69 0 -57 15 -74 62 -69 29 3 36 9
57 56 26 54 40 63 61 37 15 -18 0 -62 -25 -71 -22 -9 -19 -44 4 -44 31 0 61
47 61 96 0 55 -20 76 -69 72 -32 -3 -39 -8 -62 -53 -14 -27 -32 -50 -40 -50
-23 0 -23 42 0 62 24 20 28 53 6 53 -8 0 -24 -9 -35 -20z"/>
<path d="M566 2765 c-3 -8 -17 -15 -31 -15 -23 0 -24 -2 -15 -20 6 -11 20 -20
30 -20 11 0 20 -4 20 -10 0 -5 7 -10 15 -10 8 0 15 5 15 10 0 6 24 10 53 10
58 0 77 12 77 47 0 16 -6 23 -20 23 -11 0 -20 -7 -20 -15 0 -11 -12 -15 -45
-15 -33 0 -45 4 -45 15 0 8 -6 15 -14 15 -8 0 -16 -7 -20 -15z"/>
<path d="M2564 2657 c-107 -73 -141 -198 -82 -298 47 -79 98 -110 285 -170
201 -65 236 -88 236 -159 0 -43 -36 -100 -76 -121 -28 -15 -37 -28 -37 -57 0
-32 24 -37 64 -13 85 53 135 144 121 220 -20 104 -77 144 -295 208 -138 40
-223 99 -245 171 -17 56 38 130 133 177 57 29 64 41 30 54 -65 24 -83 23 -134
-12z"/>
<path d="M4933 2665 c-3 -9 -3 -18 -1 -20 3 -3 53 -8 111 -12 103 -6 107 -5
107 14 0 17 -9 21 -52 27 -95 11 -158 8 -165 -9z"/>
<path d="M634 2663 c-65 -4 -71 -6 -67 -23 4 -16 16 -20 67 -22 58 -3 61 -4
61 -28 0 -14 -6 -26 -15 -27 -8 -1 -36 -5 -62 -8 -39 -5 -48 -10 -48 -26 0
-18 5 -19 68 -13 37 4 73 11 80 17 15 12 16 51 2 78 -6 11 -7 19 -1 19 5 0 7
9 4 20 -3 11 -8 19 -12 18 -3 -1 -38 -4 -77 -5z"/>
<path d="M2750 2508 c0 -190 5 -214 40 -221 15 -4 39 -9 54 -13 l26 -6 0 179
0 180 -51 11 c-28 7 -55 12 -60 12 -5 0 -9 -62 -9 -142z"/>
<path d="M4953 2585 c-43 -30 -42 -122 1 -150 41 -27 75 -10 102 51 27 60 54
73 54 24 0 -16 -6 -33 -13 -37 -19 -11 -29 -53 -12 -53 25 0 56 36 62 72 8 50
-17 88 -56 88 -32 0 -53 -20 -75 -73 -20 -48 -49 -48 -54 0 -2 24 2 34 17 43
23 12 29 50 8 50 -7 0 -22 -7 -34 -15z"/>
<path d="M713 2493 c-7 -2 -10 -10 -7 -17 3 -9 -8 -15 -33 -19 -55 -10 -63 -9
-63 8 0 22 -21 18 -27 -5 -4 -13 -14 -20 -30 -20 -21 0 -22 -3 -13 -20 6 -11
19 -20 30 -20 10 0 20 -5 22 -11 3 -8 9 -7 19 4 9 8 40 19 70 24 50 7 54 10
57 37 4 31 -6 46 -25 39z"/>
<path d="M4901 2351 c-25 -118 -25 -121 -3 -121 16 0 21 9 27 46 10 69 13 73
43 64 15 -4 26 -11 25 -16 -16 -90 -15 -106 3 -102 13 2 21 18 29 53 9 42 14
49 30 47 29 -5 30 -7 16 -64 -9 -41 -9 -53 1 -60 7 -4 16 -8 19 -8 5 0 17 60
32 155 1 5 -46 19 -105 31 l-107 21 -10 -46z"/>
<path d="M658 2368 c-47 -8 -58 -14 -58 -29 0 -22 10 -23 97 -8 51 9 63 15 61
28 -4 20 -26 22 -100 9z"/>
<path d="M540 2327 c0 -20 4 -24 20 -20 25 7 23 36 -3 41 -12 3 -17 -3 -17
-21z"/>
<path d="M738 2292 c-6 -22 -76 -38 -92 -22 -16 16 -39 12 -32 -5 3 -10 -3
-17 -19 -21 -14 -3 -25 -10 -25 -14 0 -14 29 -32 41 -25 6 4 15 1 20 -6 8 -12
11 -11 22 2 6 9 35 21 64 28 53 13 68 29 58 62 -8 24 -31 24 -37 1z"/>
<path d="M740 2192 c-23 -8 -30 -23 -30 -69 0 -23 -4 -45 -10 -48 -10 -6 -25
39 -17 52 9 14 -9 36 -22 29 -16 -10 -13 -68 5 -94 17 -24 53 -29 72 -10 7 7
12 31 12 55 0 30 4 43 14 43 17 0 27 -35 15 -47 -12 -12 0 -45 15 -40 6 2 15
15 20 29 16 44 -36 114 -74 100z"/>
<path d="M2615 2168 c-34 -27 -65 -92 -65 -138 0 -82 55 -149 177 -216 166
-90 177 -104 164 -200 -6 -37 -8 -70 -6 -73 8 -7 46 32 62 63 22 42 13 117
-19 158 -15 19 -64 54 -117 82 -116 63 -167 106 -182 155 -15 50 2 86 59 124
23 15 42 32 42 36 0 10 -46 31 -69 31 -10 0 -31 -10 -46 -22z"/>
<path d="M4882 2183 c-31 -12 -55 -108 -34 -140 12 -18 55 -31 77 -23 12 4 33
26 48 49 32 48 60 55 55 14 -2 -17 -12 -32 -25 -38 -14 -6 -23 -18 -23 -32 0
-26 0 -26 35 -13 31 12 59 72 51 106 -10 37 -48 57 -80 43 -14 -7 -26 -15 -26
-18 0 -4 -13 -22 -29 -41 -26 -31 -31 -33 -45 -20 -22 21 -10 58 25 76 50 26
25 59 -29 37z"/>
<path d="M2760 2031 l0 -131 50 -25 50 -25 0 144 0 144 -27 6 c-16 3 -38 8
-50 12 l-23 6 0 -131z"/>
<path d="M775 2019 c-27 -11 -55 -25 -62 -31 -19 -16 -16 -52 6 -72 11 -10 18
-23 15 -29 -2 -7 0 -18 4 -25 7 -10 24 -7 80 15 76 29 77 30 63 52 -7 12 -17
11 -59 -4 -55 -20 -82 -15 -82 14 0 13 15 25 55 41 38 15 55 28 53 38 -4 23
-18 23 -73 1z"/>
<path d="M4780 1939 c-9 -16 -7 -21 12 -28 123 -49 143 -60 140 -78 -2 -10 -4
-25 -5 -33 -1 -8 5 -16 13 -17 10 -2 24 21 46 76 27 68 29 81 16 86 -17 6 -15
8 -33 -27 l-14 -26 -83 33 c-79 32 -82 33 -92 14z"/>
<path d="M808 1823 c-54 -25 -98 -49 -98 -52 0 -3 4 -12 9 -20 7 -11 27 -5
102 29 111 51 113 52 97 72 -12 15 -23 12 -110 -29z"/>
<path d="M2694 1753 c-24 -38 -30 -112 -11 -149 8 -16 48 -60 87 -98 100 -97
104 -107 110 -261 l6 -130 23 50 c20 41 24 66 24 136 -1 117 -20 159 -120 254
l-78 74 -2 68 c-1 37 -2 71 -2 76 -2 15 -19 6 -37 -20z"/>
<path d="M2770 1697 c0 -60 2 -65 39 -101 l38 -38 7 64 c4 35 5 70 1 78 -5 14
-67 60 -80 60 -3 0 -5 -28 -5 -63z"/>
<path d="M2711 1420 c-34 -78 -27 -163 22 -262 35 -73 100 -158 111 -147 4 3
-10 41 -30 85 -60 131 -67 155 -73 269 l-6 110 -24 -55z"/>
<path d="M2776 1360 c6 -111 23 -182 57 -245 16 -29 16 -25 17 108 0 150 -8
183 -56 228 l-25 24 7 -115z"/>
<path d="M2782 931 c2 -76 7 -104 18 -111 28 -17 40 9 39 89 0 72 -2 77 -31
100 l-30 24 4 -102z"/>
<path d="M3955 876 c-16 -12 -18 -23 -12 -110 3 -54 7 -100 10 -102 12 -13 37
11 37 36 0 22 7 30 39 44 32 15 42 16 59 5 14 -9 27 -10 42 -3 20 9 15 15 -63
77 -47 37 -87 67 -89 67 -2 0 -12 -6 -23 -14z m60 -66 c18 -20 18 -21 -1 -35
-29 -22 -34 -18 -34 20 0 40 9 44 35 15z"/>
<path d="M1712 772 c-40 -37 -72 -70 -72 -73 0 -16 35 -18 51 -3 18 16 21 16
59 -1 30 -13 40 -24 40 -41 0 -20 25 -44 44 -44 3 0 6 47 6 105 0 93 -2 105
-19 115 -11 5 -23 10 -28 10 -4 -1 -41 -31 -81 -68z m88 -4 c0 -7 -3 -23 -6
-35 -5 -19 -9 -21 -28 -11 -31 16 -31 16 -5 37 28 24 39 26 39 9z"/>
<path d="M3813 813 c-10 -3 -9 -13 2 -40 9 -20 14 -37 13 -38 -7 -6 -68 -35
-72 -35 -3 0 -14 16 -24 35 -15 31 -20 34 -35 23 -17 -13 -15 -19 22 -101 41
-88 46 -93 69 -79 10 7 9 16 -3 46 -9 21 -15 39 -13 41 7 6 67 35 73 35 3 0
13 -16 21 -35 14 -35 36 -45 50 -24 8 13 -67 178 -81 178 -5 0 -16 -3 -22 -6z"/>
<path d="M1924 743 c-9 -21 -24 -58 -35 -82 -10 -24 -19 -49 -19 -56 0 -15
127 -68 141 -60 18 12 8 24 -36 41 -25 9 -48 20 -50 24 -3 4 8 40 25 79 28 69
28 71 9 81 -17 10 -22 6 -35 -27z"/>
<path d="M3614 722 c-6 -4 -25 -33 -41 -65 l-29 -59 -14 42 c-9 28 -18 39 -28
35 -7 -3 -16 -5 -18 -5 -10 0 -2 -31 27 -105 16 -44 32 -81 33 -83 2 -1 11 0
20 4 14 5 16 14 12 43 -4 20 -2 42 3 50 8 12 13 12 35 -2 73 -48 70 -46 94
-33 23 12 22 13 -37 50 -34 20 -61 39 -61 42 0 3 9 22 20 44 11 22 20 42 20
45 0 7 -23 6 -36 -3z"/>
<path d="M2157 589 c-15 -49 -25 -94 -22 -100 16 -25 36 -5 54 54 l19 62 1
-72 c1 -63 3 -72 22 -78 11 -4 22 -5 23 -3 1 1 17 27 35 56 19 29 36 51 38 48
3 -3 -2 -26 -11 -52 -21 -61 -20 -74 3 -74 15 0 24 18 45 84 14 46 26 89 26
94 0 10 -58 28 -64 20 -2 -1 -19 -28 -40 -58 l-36 -55 0 72 c0 71 0 71 -31 82
-18 6 -33 11 -33 11 -1 0 -14 -41 -29 -91z"/>
<path d="M3338 623 c-17 -4 -18 -9 -36 -156 -7 -57 -6 -67 5 -62 8 3 18 5 23
5 5 0 10 12 12 27 2 22 10 30 43 39 35 10 43 9 61 -7 15 -14 27 -17 42 -12 19
7 15 15 -50 91 -39 45 -73 81 -77 81 -3 -1 -14 -3 -23 -6z m47 -79 c19 -29 19
-29 -12 -38 -21 -7 -23 -4 -23 28 0 43 11 46 35 10z"/>
<path d="M3190 584 c-111 -23 -110 -23 -103 -39 4 -11 14 -14 37 -9 l32 6 15
-78 c14 -77 23 -91 47 -76 10 7 9 23 -3 82 -16 78 -13 89 28 90 10 0 17 8 17
20 0 11 -1 20 -2 19 -2 -1 -32 -7 -68 -15z"/>
<path d="M2447 579 c-23 -13 -47 -62 -47 -94 0 -59 47 -95 124 -95 37 0 48 5
70 31 45 53 30 127 -31 158 -27 14 -92 14 -116 0z m103 -37 c45 -36 18 -122
-38 -122 -58 0 -84 78 -42 120 25 25 51 25 80 2z"/>
<path d="M2658 498 c-3 -120 2 -130 69 -143 39 -7 88 8 97 31 3 7 8 47 12 89
6 71 6 75 -13 75 -22 0 -33 -32 -33 -99 0 -50 -11 -63 -51 -59 l-34 3 0 83 c1
79 0 82 -22 82 -21 0 -23 -5 -25 -62z"/>
<path d="M3024 495 c4 -36 5 -65 3 -65 -2 0 -25 27 -51 60 -34 43 -54 60 -71
60 -22 0 -23 -2 -18 -67 7 -113 12 -133 33 -133 16 0 18 7 13 63 l-4 62 45
-50 c25 -27 46 -53 46 -57 0 -5 11 -8 25 -8 23 0 25 3 25 48 0 26 -3 71 -6
100 -6 43 -10 52 -27 52 -18 0 -19 -4 -13 -65z"/>
</g>
</svg>
